<svg width="1200" height="630" xmlns="http://www.w3.org/2000/svg" viewBox="0 0 1200 630">
  <!-- Background - Grove dark theme -->
  <rect width="1200" height="630" fill="#0a0a0a"/>

  <!-- Subtle gradient overlay for depth -->
  <defs>
    <radialGradient id="glow" cx="50%" cy="50%" r="50%">
      <stop offset="0%" stop-color="#16a34a" stop-opacity="0.08"/>
      <stop offset="100%" stop-color="#0a0a0a" stop-opacity="0"/>
    </radialGradient>
  </defs>
  <rect width="1200" height="630" fill="url(#glow)"/>

  <!-- Centered Grove tree logo (scaled and centered) -->
  <g transform="translate(600, 315) scale(3.5) translate(-50, -50)">
    <g transform="rotate(-12 50 50)">
      <!-- Tier 1: Top branches -->
      <path fill="#15803d" d="M50 5 L18 32 L50 18 Z" />
      <path fill="#86efac" d="M50 5 L50 18 L82 32 Z" />

      <!-- Tier 2: Middle branches -->
      <path fill="#166534" d="M50 20 L12 50 L50 35 Z" />
      <path fill="#4ade80" d="M50 20 L50 35 L88 50 Z" />

      <!-- Tier 3: Bottom branches -->
      <path fill="#14532d" d="M50 38 L18 68 L50 54 Z" />
      <path fill="#22c55e" d="M50 38 L50 54 L82 68 Z" />

      <!-- Trunk -->
      <path fill="#3d2914" d="M50 54 L42 58 L46 92 L50 92 Z" />
      <path fill="#5a3f30" d="M50 54 L58 58 L54 92 L50 92 Z" />
    </g>
  </g>
</svg>
